<svg xmlns="http://www.w3.org/2000/svg" viewBox="0 0 262.4 72.65">
	<title>bistro</title>
	<path fill="#10e8a3"
				d="M76 28.93c-5 1-8.45 1.16-16.47 1.16h-3.24v2.64h7.08V69h-7.08v2.6H83V69h-7zM34 29a16.29 16.29 0 0 0-14.26 7.71V0C14.68 1 11.3 1.16 3.27 1.16H0V3.8h7.08V69H0v2.6h19.75v-6.23c3.8 5 8.34 7.29 14.47 7.29A18.32 18.32 0 0 0 47 67.58a25.48 25.48 0 0 0 6.76-17C53.75 38.44 45.2 29 34 29zm4.75 36.12C38 67.9 35.38 69.48 32 69.48c-7.71 0-12.78-7.29-12.78-18.48 0-6.44 1.48-11.4 4.22-14.57a12.36 12.36 0 0 1 9.19-4.22A6.44 6.44 0 0 1 38.12 35C39.6 37 40 40.13 40 47.84c0 8.02-.51 14.68-1.24 17.32zM112.08 46.15a111.83 111.83 0 0 0-11.3-3.27c-4.22-1.06-6.12-2.85-6.12-5.49 0-3.27 3.06-5.49 7.39-5.49a13.79 13.79 0 0 1 9.6 4.1 8.64 8.64 0 0 1 2.53 5.39h2.64V29h-2.64c-.21 2.22-.63 2.85-1.58 2.85a6.16 6.16 0 0 1-2.64-.74c-3.59-1.48-5.81-2.11-8.66-2.11a13.57 13.57 0 0 0-13.62 13.56 12 12 0 0 0 6.76 10.88 58.85 58.85 0 0 0 8.56 2.74c5.6 1.48 6 1.58 7.6 2.53a5.79 5.79 0 0 1 2.75 4.65c0 3.59-3.91 6.44-9 6.44a15.17 15.17 0 0 1-11.72-6A13.7 13.7 0 0 1 90 56.18h-2.74V71.6H90c0-1.8.53-2.75 1.58-2.75a3.91 3.91 0 0 1 2.11.84 19.39 19.39 0 0 0 10.35 3c9.19 0 15.84-6.44 15.84-15.42.01-5.27-2.63-9.01-7.8-11.12zM189.32 29c-4.86 0-9.5 3.38-12.25 9v-9.07c-5 1-8.55 1.16-16.9 1.16h-2.85v2.64h7.08V69h-7.08v2.6h27.88V69h-8.13V50.48c0-6.44 1.27-10.56 4.65-14.57 1.27-1.58 3.38-3.06 4.33-3.06a.78.78 0 0 1 .84.84 1 1 0 0 1-.32.74 5.55 5.55 0 0 0-1.37 3.7 5.92 5.92 0 0 0 6.23 5.87 6.5 6.5 0 0 0 6.57-6.72c0-4.76-3.72-8.28-8.68-8.28zM146.24 67.69c-2.22 0-3.38-1.9-3.38-5.49V32.74h8.76V30.1h-8.76V11.93H140c-3.59 8.76-9.72 15.84-16.79 19.11v1.69h7V62.2c0 7.08 3.38 10.45 10.56 10.45a14.61 14.61 0 0 0 11.19-4.86 14.62 14.62 0 0 0 2.75-6.44l-3.06-.53c-1.19 5.07-2.56 6.87-5.41 6.87zM222.73 29c-13.2 0-23.65 9.61-23.65 21.86s10.35 21.75 23.65 21.75c13.09 0 23.65-9.61 23.65-21.54 0-12.53-10.24-22.07-23.65-22.07zm8.34 36.22c-1.48 2.85-4.65 4.54-8.34 4.54a9 9 0 0 1-7.92-3.91c-1.37-2.22-2-6.55-2-15 0-7.71.53-12.25 1.69-14.47 1.37-2.85 4.54-4.54 8.24-4.54a9.16 9.16 0 0 1 7.92 3.91c1.48 2.22 2 6.44 2 15.21 0 7.65-.53 12.19-1.59 14.3z" />
</svg>
